<mxfile host="app.diagrams.net" modified="2021-03-25T03:49:57.078Z" agent="5.0 (Windows NT 10.0; WOW64) AppleWebKit/537.36 (KHTML, like Gecko) Chrome/83.0.4103.61 Safari/537.36" etag="xPnbMRPQEwJgBKxz1iJN" version="14.5.1" type="github">
  <diagram id="E9bjbOYZbZJECh2Sft1l" name="Page-1">
    <mxGraphModel dx="2272" dy="831" grid="1" gridSize="10" guides="1" tooltips="1" connect="1" arrows="1" fold="1" page="1" pageScale="1" pageWidth="850" pageHeight="1100" math="0" shadow="0">
      <root>
        <mxCell id="0" />
        <mxCell id="1" parent="0" />
        <mxCell id="FQ22zy8_jKBgdNmN2pex-1" value="VISITOR" style="rounded=0;whiteSpace=wrap;html=1;" vertex="1" parent="1">
          <mxGeometry x="-790" y="200" width="120" height="60" as="geometry" />
        </mxCell>
        <mxCell id="FQ22zy8_jKBgdNmN2pex-2" value="" style="rhombus;whiteSpace=wrap;html=1;" vertex="1" parent="1">
          <mxGeometry x="-630" y="190" width="130" height="80" as="geometry" />
        </mxCell>
        <mxCell id="FQ22zy8_jKBgdNmN2pex-3" value="ENTRIES" style="rounded=0;whiteSpace=wrap;html=1;" vertex="1" parent="1">
          <mxGeometry x="-460" y="200" width="120" height="60" as="geometry" />
        </mxCell>
        <mxCell id="FQ22zy8_jKBgdNmN2pex-4" value="" style="endArrow=none;html=1;entryX=0;entryY=0.5;entryDx=0;entryDy=0;" edge="1" parent="1" target="FQ22zy8_jKBgdNmN2pex-2">
          <mxGeometry width="50" height="50" relative="1" as="geometry">
            <mxPoint x="-669.9999999999998" y="229.65999999999997" as="sourcePoint" />
            <mxPoint x="-600" y="229.66" as="targetPoint" />
          </mxGeometry>
        </mxCell>
        <mxCell id="FQ22zy8_jKBgdNmN2pex-5" value="" style="endArrow=none;html=1;entryX=0;entryY=0.5;entryDx=0;entryDy=0;" edge="1" parent="1">
          <mxGeometry width="50" height="50" relative="1" as="geometry">
            <mxPoint x="-499.9999999999998" y="229.66000000000008" as="sourcePoint" />
            <mxPoint x="-459.9999999999998" y="230" as="targetPoint" />
          </mxGeometry>
        </mxCell>
        <mxCell id="FQ22zy8_jKBgdNmN2pex-6" value="POST" style="text;html=1;strokeColor=none;fillColor=none;align=center;verticalAlign=middle;whiteSpace=wrap;rounded=0;" vertex="1" parent="1">
          <mxGeometry x="-585" y="220" width="40" height="20" as="geometry" />
        </mxCell>
        <mxCell id="FQ22zy8_jKBgdNmN2pex-7" value="NAME" style="ellipse;whiteSpace=wrap;html=1;" vertex="1" parent="1">
          <mxGeometry x="-490" y="140" width="80" height="30" as="geometry" />
        </mxCell>
        <mxCell id="FQ22zy8_jKBgdNmN2pex-8" value="EMAIL" style="ellipse;whiteSpace=wrap;html=1;" vertex="1" parent="1">
          <mxGeometry x="-400" y="140" width="90" height="30" as="geometry" />
        </mxCell>
        <mxCell id="FQ22zy8_jKBgdNmN2pex-9" value="PHONE_NO" style="ellipse;whiteSpace=wrap;html=1;" vertex="1" parent="1">
          <mxGeometry x="-490" y="290" width="80" height="30" as="geometry" />
        </mxCell>
        <mxCell id="FQ22zy8_jKBgdNmN2pex-10" value="" style="endArrow=none;html=1;" edge="1" parent="1">
          <mxGeometry width="50" height="50" relative="1" as="geometry">
            <mxPoint x="-400" y="200" as="sourcePoint" />
            <mxPoint x="-360" y="170" as="targetPoint" />
          </mxGeometry>
        </mxCell>
        <mxCell id="FQ22zy8_jKBgdNmN2pex-11" value="" style="endArrow=none;html=1;exitX=0.578;exitY=-0.001;exitDx=0;exitDy=0;exitPerimeter=0;" edge="1" parent="1">
          <mxGeometry width="50" height="50" relative="1" as="geometry">
            <mxPoint x="-400.6400000000003" y="199.94000000000005" as="sourcePoint" />
            <mxPoint x="-450" y="170" as="targetPoint" />
          </mxGeometry>
        </mxCell>
        <mxCell id="FQ22zy8_jKBgdNmN2pex-12" value="" style="endArrow=none;html=1;entryX=0.503;entryY=1.08;entryDx=0;entryDy=0;entryPerimeter=0;exitX=0.5;exitY=0;exitDx=0;exitDy=0;" edge="1" parent="1" source="FQ22zy8_jKBgdNmN2pex-9">
          <mxGeometry width="50" height="50" relative="1" as="geometry">
            <mxPoint x="-440" y="285" as="sourcePoint" />
            <mxPoint x="-399.6400000000003" y="260" as="targetPoint" />
          </mxGeometry>
        </mxCell>
        <mxCell id="FQ22zy8_jKBgdNmN2pex-13" value="CONTENT" style="ellipse;whiteSpace=wrap;html=1;" vertex="1" parent="1">
          <mxGeometry x="-390" y="290" width="80" height="30" as="geometry" />
        </mxCell>
        <mxCell id="FQ22zy8_jKBgdNmN2pex-14" value="" style="endArrow=none;html=1;entryX=0.5;entryY=1;entryDx=0;entryDy=0;exitX=0.591;exitY=0.022;exitDx=0;exitDy=0;exitPerimeter=0;" edge="1" parent="1" source="FQ22zy8_jKBgdNmN2pex-44" target="FQ22zy8_jKBgdNmN2pex-3">
          <mxGeometry width="50" height="50" relative="1" as="geometry">
            <mxPoint x="-345" y="287" as="sourcePoint" />
            <mxPoint x="-389.6400000000003" y="270" as="targetPoint" />
            <Array as="points" />
          </mxGeometry>
        </mxCell>
        <mxCell id="FQ22zy8_jKBgdNmN2pex-15" value="SUPER ADMIN" style="rounded=0;whiteSpace=wrap;html=1;" vertex="1" parent="1">
          <mxGeometry x="-790" y="430" width="120" height="60" as="geometry" />
        </mxCell>
        <mxCell id="FQ22zy8_jKBgdNmN2pex-16" value="" style="rhombus;whiteSpace=wrap;html=1;" vertex="1" parent="1">
          <mxGeometry x="-630" y="420" width="130" height="80" as="geometry" />
        </mxCell>
        <mxCell id="FQ22zy8_jKBgdNmN2pex-17" value="USERS" style="rounded=0;whiteSpace=wrap;html=1;" vertex="1" parent="1">
          <mxGeometry x="-460" y="430" width="120" height="60" as="geometry" />
        </mxCell>
        <mxCell id="FQ22zy8_jKBgdNmN2pex-18" value="" style="endArrow=none;html=1;entryX=0;entryY=0.5;entryDx=0;entryDy=0;" edge="1" parent="1" target="FQ22zy8_jKBgdNmN2pex-16">
          <mxGeometry width="50" height="50" relative="1" as="geometry">
            <mxPoint x="-669.9999999999998" y="459.65999999999997" as="sourcePoint" />
            <mxPoint x="-600" y="459.65999999999997" as="targetPoint" />
          </mxGeometry>
        </mxCell>
        <mxCell id="FQ22zy8_jKBgdNmN2pex-19" value="" style="endArrow=none;html=1;entryX=0;entryY=0.5;entryDx=0;entryDy=0;" edge="1" parent="1">
          <mxGeometry width="50" height="50" relative="1" as="geometry">
            <mxPoint x="-499.9999999999998" y="459.65999999999997" as="sourcePoint" />
            <mxPoint x="-459.9999999999998" y="460" as="targetPoint" />
          </mxGeometry>
        </mxCell>
        <mxCell id="FQ22zy8_jKBgdNmN2pex-20" value="CRUD" style="text;html=1;strokeColor=none;fillColor=none;align=center;verticalAlign=middle;whiteSpace=wrap;rounded=0;" vertex="1" parent="1">
          <mxGeometry x="-585" y="450" width="40" height="20" as="geometry" />
        </mxCell>
        <mxCell id="FQ22zy8_jKBgdNmN2pex-21" value="NAME" style="ellipse;whiteSpace=wrap;html=1;" vertex="1" parent="1">
          <mxGeometry x="-490" y="520" width="80" height="30" as="geometry" />
        </mxCell>
        <mxCell id="FQ22zy8_jKBgdNmN2pex-22" value="" style="endArrow=none;html=1;entryX=0.503;entryY=1.08;entryDx=0;entryDy=0;entryPerimeter=0;exitX=0.5;exitY=0;exitDx=0;exitDy=0;" edge="1" parent="1" source="FQ22zy8_jKBgdNmN2pex-21">
          <mxGeometry width="50" height="50" relative="1" as="geometry">
            <mxPoint x="-440" y="515" as="sourcePoint" />
            <mxPoint x="-399.6400000000003" y="490" as="targetPoint" />
          </mxGeometry>
        </mxCell>
        <mxCell id="FQ22zy8_jKBgdNmN2pex-23" value="EMAIL" style="ellipse;whiteSpace=wrap;html=1;" vertex="1" parent="1">
          <mxGeometry x="-390" y="520" width="80" height="30" as="geometry" />
        </mxCell>
        <mxCell id="FQ22zy8_jKBgdNmN2pex-24" value="" style="endArrow=none;html=1;entryX=0.5;entryY=1;entryDx=0;entryDy=0;exitX=0.591;exitY=0.022;exitDx=0;exitDy=0;exitPerimeter=0;" edge="1" parent="1" source="FQ22zy8_jKBgdNmN2pex-23" target="FQ22zy8_jKBgdNmN2pex-17">
          <mxGeometry width="50" height="50" relative="1" as="geometry">
            <mxPoint x="-345" y="517" as="sourcePoint" />
            <mxPoint x="-389.6400000000003" y="500" as="targetPoint" />
            <Array as="points" />
          </mxGeometry>
        </mxCell>
        <mxCell id="FQ22zy8_jKBgdNmN2pex-25" value="PASSWORD" style="ellipse;whiteSpace=wrap;html=1;" vertex="1" parent="1">
          <mxGeometry x="-440" y="560" width="80" height="30" as="geometry" />
        </mxCell>
        <mxCell id="FQ22zy8_jKBgdNmN2pex-26" value="" style="endArrow=none;html=1;" edge="1" parent="1">
          <mxGeometry width="50" height="50" relative="1" as="geometry">
            <mxPoint x="-400" y="560" as="sourcePoint" />
            <mxPoint x="-400" y="490" as="targetPoint" />
          </mxGeometry>
        </mxCell>
        <mxCell id="FQ22zy8_jKBgdNmN2pex-27" value="VIEWS" style="rhombus;whiteSpace=wrap;html=1;" vertex="1" parent="1">
          <mxGeometry x="-465" y="330" width="130" height="80" as="geometry" />
        </mxCell>
        <mxCell id="FQ22zy8_jKBgdNmN2pex-28" value="" style="endArrow=none;html=1;" edge="1" parent="1">
          <mxGeometry width="50" height="50" relative="1" as="geometry">
            <mxPoint x="-400" y="330" as="sourcePoint" />
            <mxPoint x="-400" y="260" as="targetPoint" />
          </mxGeometry>
        </mxCell>
        <mxCell id="FQ22zy8_jKBgdNmN2pex-29" value="" style="endArrow=none;html=1;" edge="1" parent="1">
          <mxGeometry width="50" height="50" relative="1" as="geometry">
            <mxPoint x="-400" y="430" as="sourcePoint" />
            <mxPoint x="-400" y="410" as="targetPoint" />
          </mxGeometry>
        </mxCell>
        <mxCell id="FQ22zy8_jKBgdNmN2pex-30" value="NAME" style="ellipse;whiteSpace=wrap;html=1;" vertex="1" parent="1">
          <mxGeometry x="-800" y="520" width="80" height="30" as="geometry" />
        </mxCell>
        <mxCell id="FQ22zy8_jKBgdNmN2pex-31" value="" style="endArrow=none;html=1;entryX=0.503;entryY=1.08;entryDx=0;entryDy=0;entryPerimeter=0;exitX=0.5;exitY=0;exitDx=0;exitDy=0;" edge="1" parent="1" source="FQ22zy8_jKBgdNmN2pex-30">
          <mxGeometry width="50" height="50" relative="1" as="geometry">
            <mxPoint x="-750" y="515" as="sourcePoint" />
            <mxPoint x="-709.6400000000003" y="490" as="targetPoint" />
          </mxGeometry>
        </mxCell>
        <mxCell id="FQ22zy8_jKBgdNmN2pex-32" value="EMAIL" style="ellipse;whiteSpace=wrap;html=1;" vertex="1" parent="1">
          <mxGeometry x="-700" y="520" width="80" height="30" as="geometry" />
        </mxCell>
        <mxCell id="FQ22zy8_jKBgdNmN2pex-33" value="" style="endArrow=none;html=1;entryX=0.5;entryY=1;entryDx=0;entryDy=0;exitX=0.591;exitY=0.022;exitDx=0;exitDy=0;exitPerimeter=0;" edge="1" parent="1" source="FQ22zy8_jKBgdNmN2pex-32">
          <mxGeometry width="50" height="50" relative="1" as="geometry">
            <mxPoint x="-655" y="517" as="sourcePoint" />
            <mxPoint x="-709.9999999999998" y="490" as="targetPoint" />
            <Array as="points" />
          </mxGeometry>
        </mxCell>
        <mxCell id="FQ22zy8_jKBgdNmN2pex-34" value="PASSWORD" style="ellipse;whiteSpace=wrap;html=1;" vertex="1" parent="1">
          <mxGeometry x="-750" y="560" width="80" height="30" as="geometry" />
        </mxCell>
        <mxCell id="FQ22zy8_jKBgdNmN2pex-35" value="" style="endArrow=none;html=1;" edge="1" parent="1">
          <mxGeometry width="50" height="50" relative="1" as="geometry">
            <mxPoint x="-709.9999999999998" y="560" as="sourcePoint" />
            <mxPoint x="-709.9999999999998" y="490" as="targetPoint" />
          </mxGeometry>
        </mxCell>
        <mxCell id="FQ22zy8_jKBgdNmN2pex-36" value="" style="rhombus;whiteSpace=wrap;html=1;" vertex="1" parent="1">
          <mxGeometry x="-670" y="310" width="130" height="80" as="geometry" />
        </mxCell>
        <mxCell id="FQ22zy8_jKBgdNmN2pex-37" value="" style="endArrow=none;html=1;entryX=0.5;entryY=1;entryDx=0;entryDy=0;exitX=1;exitY=0.5;exitDx=0;exitDy=0;" edge="1" parent="1" source="FQ22zy8_jKBgdNmN2pex-15" target="FQ22zy8_jKBgdNmN2pex-36">
          <mxGeometry width="50" height="50" relative="1" as="geometry">
            <mxPoint x="-659.9999999999998" y="469.65999999999997" as="sourcePoint" />
            <mxPoint x="-590" y="469.65999999999997" as="targetPoint" />
          </mxGeometry>
        </mxCell>
        <mxCell id="FQ22zy8_jKBgdNmN2pex-38" value="" style="endArrow=none;html=1;entryX=0;entryY=0.5;entryDx=0;entryDy=0;exitX=0.5;exitY=0;exitDx=0;exitDy=0;" edge="1" parent="1" source="FQ22zy8_jKBgdNmN2pex-36" target="FQ22zy8_jKBgdNmN2pex-3">
          <mxGeometry width="50" height="50" relative="1" as="geometry">
            <mxPoint x="-539.9999999999998" y="349.65999999999997" as="sourcePoint" />
            <mxPoint x="-499.9999999999998" y="350" as="targetPoint" />
          </mxGeometry>
        </mxCell>
        <mxCell id="FQ22zy8_jKBgdNmN2pex-39" value="CRUD" style="text;html=1;strokeColor=none;fillColor=none;align=center;verticalAlign=middle;whiteSpace=wrap;rounded=0;" vertex="1" parent="1">
          <mxGeometry x="-625" y="340" width="40" height="20" as="geometry" />
        </mxCell>
        <mxCell id="FQ22zy8_jKBgdNmN2pex-40" value="(1,1)" style="text;html=1;strokeColor=none;fillColor=none;align=center;verticalAlign=middle;whiteSpace=wrap;rounded=0;" vertex="1" parent="1">
          <mxGeometry x="-670" y="210" width="40" height="20" as="geometry" />
        </mxCell>
        <mxCell id="FQ22zy8_jKBgdNmN2pex-41" value="(0,N)" style="text;html=1;strokeColor=none;fillColor=none;align=center;verticalAlign=middle;whiteSpace=wrap;rounded=0;" vertex="1" parent="1">
          <mxGeometry x="-495" y="210" width="40" height="20" as="geometry" />
        </mxCell>
        <mxCell id="FQ22zy8_jKBgdNmN2pex-42" value="(1,1)" style="text;html=1;strokeColor=none;fillColor=none;align=center;verticalAlign=middle;whiteSpace=wrap;rounded=0;" vertex="1" parent="1">
          <mxGeometry x="-660" y="440" width="40" height="20" as="geometry" />
        </mxCell>
        <mxCell id="FQ22zy8_jKBgdNmN2pex-43" value="(1,N)" style="text;html=1;strokeColor=none;fillColor=none;align=center;verticalAlign=middle;whiteSpace=wrap;rounded=0;" vertex="1" parent="1">
          <mxGeometry x="-500" y="250" width="40" height="20" as="geometry" />
        </mxCell>
        <mxCell id="FQ22zy8_jKBgdNmN2pex-44" value="(1,N)" style="text;html=1;strokeColor=none;fillColor=none;align=center;verticalAlign=middle;whiteSpace=wrap;rounded=0;" vertex="1" parent="1">
          <mxGeometry x="-400" y="270" width="40" height="20" as="geometry" />
        </mxCell>
        <mxCell id="FQ22zy8_jKBgdNmN2pex-45" value="" style="endArrow=none;html=1;entryX=0.5;entryY=1;entryDx=0;entryDy=0;exitX=0.591;exitY=0.022;exitDx=0;exitDy=0;exitPerimeter=0;" edge="1" parent="1" source="FQ22zy8_jKBgdNmN2pex-13" target="FQ22zy8_jKBgdNmN2pex-44">
          <mxGeometry width="50" height="50" relative="1" as="geometry">
            <mxPoint x="-342.7199999999998" y="290.6600000000001" as="sourcePoint" />
            <mxPoint x="-400" y="260" as="targetPoint" />
            <Array as="points" />
          </mxGeometry>
        </mxCell>
        <mxCell id="FQ22zy8_jKBgdNmN2pex-46" value="(1,N)" style="text;html=1;strokeColor=none;fillColor=none;align=center;verticalAlign=middle;whiteSpace=wrap;rounded=0;" vertex="1" parent="1">
          <mxGeometry x="-400" y="410" width="40" height="20" as="geometry" />
        </mxCell>
        <mxCell id="FQ22zy8_jKBgdNmN2pex-47" value="(1,1)" style="text;html=1;strokeColor=none;fillColor=none;align=center;verticalAlign=middle;whiteSpace=wrap;rounded=0;" vertex="1" parent="1">
          <mxGeometry x="-680" y="410" width="40" height="20" as="geometry" />
        </mxCell>
        <mxCell id="FQ22zy8_jKBgdNmN2pex-48" value="(1,N)" style="text;html=1;strokeColor=none;fillColor=none;align=center;verticalAlign=middle;whiteSpace=wrap;rounded=0;" vertex="1" parent="1">
          <mxGeometry x="-505" y="440" width="40" height="20" as="geometry" />
        </mxCell>
      </root>
    </mxGraphModel>
  </diagram>
</mxfile>
